<svg xmlns="http://www.w3.org/2000/svg" viewBox="0 0 240 23">
  <path d="M5.304,16.608 C8.76,16.608 11.136,14.256 11.136,11.4 C11.136,8.448 9.096,7.392 6.528,6.552 C4.584,5.88 3,5.352 3,3.72 C3,2.52 4.032,1.584 5.64,1.584 C6.624,1.584 7.176,1.776 7.632,1.992 L9.744,5.88 L10.416,5.88 L10.344,1.2 L9.216,1.56 C8.352,1.32 7.104,0.984 5.736,0.984 C2.568,0.984 0.264,2.952 0.264,5.76 C0.264,8.352 2.232,9.264 4.584,10.08 C6.624,10.8 8.424,11.424 8.424,13.416 C8.424,14.976 7.464,15.984 5.448,15.984 C3.864,15.984 2.88,15.336 1.968,14.208 L0.744,11.424 L0,11.424 L0.36,15.816 C1.632,16.296 3.096,16.608 5.304,16.608 Z M18.792,16.296 L18.72,15.888 L18.432,15.864 C17.64,15.792 17.448,15.696 17.448,15.48 L17.448,0 L12.528,1.344 L12.48,1.632 L13.104,1.896 C13.776,2.112 13.944,2.328 13.944,3.504 L13.944,15.456 C13.944,15.7234286 13.8198367,15.8046122 13.2448426,15.853277 L12.768,15.888 L12.672,16.296 L18.792,16.296 Z M25.656,16.632 C29.328,16.632 31.8,14.112 31.8,10.944 C31.8,7.944 29.64,5.4 25.944,5.4 C22.296,5.4 19.8,7.92 19.8,11.04 C19.8,14.088 21.936,16.632 25.656,16.632 Z M25.752,16.128 C25.32,16.128 24.912,16.008 24.624,15.72 C24,15.048 23.544,13.656 23.544,10.776 C23.544,7.824 24.336,5.952 25.824,5.952 C26.256,5.952 26.592,6.048 26.904,6.36 C27.528,6.984 28.008,8.4 28.008,11.232 C28.008,14.136 27.216,16.128 25.752,16.128 Z M38.832,16.536 L41.616,9.12 L44.472,16.536 L45.912,16.536 L48.552,8.952 C49.32,6.744 49.488,6.408 50.424,6.288 L50.928,6.168 L51,5.76 L46.584,5.76 L46.656,6.168 L47.136,6.312 C48.408,6.528 48.576,7.104 47.904,9 L46.608,12.936 L44.664,7.296 C44.448,6.624 44.4,6.384 45.216,6.264 L45.744,6.168 L45.792,5.76 L39.264,5.76 L39.312,6.168 L39.768,6.264 C40.176,6.336 40.632,6.528 40.968,7.392 L41.304,8.352 L39.576,13.128 L37.464,7.296 C37.2,6.624 37.368,6.336 37.944,6.264 L38.496,6.168 L38.544,5.76 L32.112,5.76 L32.16,6.168 L32.568,6.264 C33.264,6.336 33.432,6.552 33.792,7.416 L37.416,16.536 L38.832,16.536 Z M64.512,16.704 C67.032,16.704 70.296,15.888 72.144,14.808 L72.096,14.52 L70.512,14.76 L70.512,10.512 C70.512,10.344 70.584,10.224 71.328,10.176 L72.36,10.08 L72.432,9.648 L64.44,9.648 L64.512,10.08 L65.232,10.152 C66.288,10.224 66.768,10.344 66.768,10.536 L66.768,15.576 C66.528,15.744 65.568,16.128 64.68,16.128 C62.448,16.128 60.192,13.944 60.192,8.784 C60.192,4.584 61.8,1.56 64.872,1.56 C65.88,1.56 67.056,1.776 67.704,2.208 L69.888,6.456 L70.704,6.456 L70.656,1.296 L68.736,1.752 C67.944,1.344 66.36,0.984 64.848,0.984 C59.04,0.984 55.92,4.536 55.92,8.976 C55.92,13.176 58.944,16.704 64.512,16.704 Z M79.896,16.296 L79.824,15.888 L79.392,15.864 C78.384,15.792 78.192,15.672 78.192,15.456 L78.192,10.224 C78.72,8.496 79.296,7.68 79.968,7.512 C80.232,8.28 80.76,9 81.816,9 C82.728,9 83.424,8.136 83.424,7.32 C83.424,6.072 82.608,5.4 81.504,5.4 C80.016,5.4 79.032,6.72 78.264,8.976 L78.192,8.976 L78.24,5.424 L73.248,6.816 L73.224,7.128 L73.704,7.248 C74.52,7.488 74.712,7.68 74.712,9.168 L74.712,15.456 C74.712,15.744 74.448,15.816 73.752,15.864 L73.44,15.888 L73.368,16.296 L79.896,16.296 Z M89.88,16.632 C93.552,16.632 96.024,14.112 96.024,10.944 C96.024,7.944 93.864,5.4 90.168,5.4 C86.52,5.4 84.024,7.92 84.024,11.04 C84.024,14.088 86.16,16.632 89.88,16.632 Z M89.976,16.128 C89.544,16.128 89.136,16.008 88.848,15.72 C88.224,15.048 87.768,13.656 87.768,10.776 C87.768,7.824 88.56,5.952 90.048,5.952 C90.48,5.952 90.816,6.048 91.128,6.36 C91.752,6.984 92.232,8.4 92.232,11.232 C92.232,14.136 91.44,16.128 89.976,16.128 Z M103.056,16.536 L105.84,9.12 L108.696,16.536 L110.136,16.536 L112.776,8.952 C113.544,6.744 113.712,6.408 114.648,6.288 L115.152,6.168 L115.224,5.76 L110.808,5.76 L110.88,6.168 L111.36,6.312 C112.632,6.528 112.8,7.104 112.128,9 L110.832,12.936 L108.888,7.296 C108.672,6.624 108.624,6.384 109.44,6.264 L109.968,6.168 L110.016,5.76 L103.488,5.76 L103.536,6.168 L103.992,6.264 C104.4,6.336 104.856,6.528 105.192,7.392 L105.528,8.352 L103.8,13.128 L101.688,7.296 C101.424,6.624 101.592,6.336 102.168,6.264 L102.72,6.168 L102.768,5.76 L96.336,5.76 L96.384,6.168 L96.792,6.264 C97.488,6.336 97.656,6.552 98.016,7.416 L101.64,16.536 L103.056,16.536 Z M120.144,16.584 C121.8,16.584 123.048,15.72 124.152,14.52 L124.056,14.208 C123.624,14.544 122.976,14.856 122.112,14.856 C120.84,14.856 120.216,14.256 120.24,12.36 L120.312,7.32 L123.696,7.32 L124.008,5.832 L120.336,5.832 L120.36,3.024 L119.832,3 L117.864,4.512 L115.728,6.12 L115.104,7.32 L117.048,7.392 L116.952,13.056 C116.904,15.432 117.936,16.584 120.144,16.584 Z M130.704,16.296 L130.632,15.888 L130.248,15.864 C129.432,15.792 129.312,15.696 129.312,15.48 L129.312,8.064 C129.72,7.824 130.296,7.584 130.992,7.584 C132.12,7.584 132.864,8.04 132.864,9.816 L132.864,15.456 C132.864,15.648 132.888,15.816 132.096,15.864 L131.688,15.888 L131.616,16.296 L137.832,16.296 L137.76,15.888 L137.496,15.864 C136.44,15.72 136.32,15.624 136.32,15.456 L136.32,9.12 C136.32,7.944 136.08,6.84 135.528,6.264 C134.952,5.688 134.328,5.4 133.536,5.4 C132.048,5.4 130.608,6.48 129.384,7.488 L129.36,7.488 L129.36,0 L124.392,1.344 L124.344,1.632 L125.016,1.896 C125.688,2.112 125.832,2.328 125.832,3.504 L125.832,15.456 C125.832,15.744 125.592,15.816 124.872,15.864 L124.536,15.888 L124.464,16.296 L130.704,16.296 Z M147.216,16.296 L147.144,15.864 L146.64,15.792 C144.72,15.552 144.864,15.144 145.896,12.072 L146.448,10.488 L150.6,10.488 L151.68,13.656 C152.232,15.24 152.208,15.696 151.056,15.792 L150.504,15.864 L150.432,16.296 L158.592,16.296 L158.544,15.864 L157.92,15.768 C157.032,15.672 156.48,15.264 155.712,13.176 L151.32,0.864 L150.744,0.864 C150.312,1.872 148.944,2.712 148.008,2.952 L148.224,3.84 L145.416,11.568 C144.024,15.288 143.832,15.552 142.32,15.792 L141.888,15.864 L141.816,16.296 L147.216,16.296 Z M150.408,9.912 L146.664,9.912 L148.512,4.656 L148.608,4.656 L150.408,9.912 Z M164.304,16.68 C166.752,16.68 168.504,15.336 169.368,12.936 L169.104,12.792 C168.456,13.992 167.472,14.64 166.176,14.64 C164.04,14.64 162.888,13.008 162.888,10.2 C162.888,7.464 163.872,6 165.312,6 C165.864,6 166.344,6.24 166.368,6.528 C166.368,6.648 165.864,7.152 165.864,7.632 C165.768,8.664 166.464,9.6 167.544,9.6 C168.48,9.6 169.2,8.928 169.2,7.92 C169.2,6.432 167.544,5.4 165.168,5.4 C161.616,5.4 159.12,7.944 159.12,11.376 C159.12,14.496 161.352,16.68 164.304,16.68 Z M178.656,16.608 C179.952,16.608 181.176,15.24 181.872,14.352 L181.632,14.088 C181.32,14.448 180.936,14.832 180.6,14.832 C180.072,14.832 179.712,14.472 179.76,13.536 L179.952,9.312 C180.048,6.576 178.848,5.4 176.088,5.4 C173.688,5.4 170.352,6.672 170.352,8.448 C170.352,9.288 171.072,9.744 171.936,9.744 C172.872,9.744 173.544,9.072 173.544,8.328 C173.544,7.632 172.776,7.008 172.776,6.84 C172.776,6.6 173.16,6.36 174.048,6.36 C175.656,6.36 176.544,7.632 176.472,9.264 L176.448,9.936 C171.984,11.136 170.28,12.264 170.28,14.136 C170.28,15.504 171.456,16.584 172.896,16.584 C174.24,16.584 175.248,15.624 176.376,14.304 L176.448,14.328 C176.616,15.816 177.48,16.608 178.656,16.608 Z M174.984,14.544 C174.12,14.544 173.592,13.944 173.592,12.984 C173.592,11.832 174.264,11.016 176.472,10.416 L176.328,13.8 C176.016,14.16 175.56,14.544 174.984,14.544 Z M190.344,16.656 L195.288,15.84 L195.336,15.528 L194.664,15.36 C193.968,15.168 193.824,14.904 193.824,13.728 L193.824,0.048 L188.664,1.056 L188.616,1.344 L189.528,1.608 C190.176,1.776 190.344,2.04 190.344,3.24 L190.344,5.784 C190.344,5.832 190.32,5.784 190.32,5.784 C189.864,5.616 189.24,5.496 188.376,5.496 C185.28,5.496 182.256,7.584 182.256,11.4 C182.256,14.352 184.152,16.632 186.6,16.632 C188.016,16.632 189.432,15.624 190.296,14.472 L190.344,14.52 L190.344,16.656 Z M188.592,14.712 C187.056,14.712 186.024,12.96 186.024,10.488 C186.024,7.896 186.768,6.024 188.088,6.024 C188.712,6.024 189.624,6.792 190.344,7.968 L190.344,13.92 C189.84,14.352 189.312,14.712 188.592,14.712 Z M201.12,16.68 C203.76,16.68 205.44,15.336 206.28,12.936 L205.992,12.792 C205.344,13.992 204.36,14.64 203.04,14.64 C200.928,14.64 199.632,12.888 199.608,10.368 C199.608,10.152 199.608,9.768 199.632,9.552 C200.568,9.6 206.112,9.672 206.112,9.672 C206.16,9.456 206.184,9.192 206.184,8.952 C206.184,7.152 204.72,5.352 201.888,5.352 C198.528,5.352 195.936,7.896 195.936,11.28 C195.936,14.424 198.192,16.68 201.12,16.68 Z M199.632,9.12 C199.8,7.056 200.616,5.952 201.552,5.952 C202.656,5.952 202.992,7.512 202.968,9.096 L199.632,9.12 Z M213.528,16.296 L213.456,15.888 L213.12,15.864 C212.232,15.792 212.16,15.696 212.16,15.48 L212.16,8.016 C212.568,7.8 213.048,7.584 213.648,7.584 C214.824,7.584 215.592,8.064 215.592,9.864 L215.592,15.456 C215.592,15.648 215.496,15.816 214.8,15.864 L214.392,15.888 L214.32,16.296 L220.44,16.296 L220.368,15.888 L220.056,15.864 C219.168,15.744 219.072,15.696 219.072,15.504 L219.072,8.208 C219.264,7.824 219.912,7.584 220.56,7.584 C221.736,7.584 222.48,8.064 222.48,9.864 L222.48,15.456 C222.48,15.648 222.504,15.816 221.712,15.864 L221.304,15.888 L221.232,16.296 L227.448,16.296 L227.376,15.888 L227.112,15.864 C226.069333,15.728 225.968593,15.6348148 225.960617,15.4833539 L225.96,9.768 C225.96,7.944 225.72,6.84 225.144,6.264 C224.592,5.712 223.968,5.4 223.176,5.4 C221.664,5.4 220.224,6.408 219.024,7.56 L218.904,7.536 C218.784,7.008 218.568,6.6 218.232,6.24 C217.704,5.712 217.08,5.4 216.264,5.4 C214.8,5.4 213.36,6.456 212.208,7.512 L212.16,7.512 L212.208,5.424 L207.216,6.816 L207.192,7.128 L207.672,7.248 C208.488,7.488 208.68,7.68 208.68,9.168 L208.68,15.456 C208.68,15.744 208.416,15.816 207.72,15.864 L207.384,15.888 L207.312,16.296 L213.528,16.296 Z M230.064,22.488 C231.48,22.488 232.488,21.552 233.232,19.344 L234.408,15.96 L237.048,8.928 C237.888,6.72 238.056,6.36 238.968,6.264 L239.496,6.168 L239.568,5.76 L235.128,5.76 L235.2,6.168 L235.704,6.312 C236.976,6.528 237.168,6.888 236.448,8.88 L234.984,12.936 L232.632,7.272 C232.32,6.624 232.488,6.384 233.304,6.264 L233.832,6.168 L233.904,5.76 L227.16,5.76 L227.232,6.168 L227.64,6.264 C228.336,6.384 228.552,6.576 228.936,7.392 L233.136,16.824 L233.544,16.824 L232.776,18.912 C232.344,20.136 232.056,20.592 231.456,20.736 C231.36,20.016 230.784,19.248 229.752,19.248 C228.792,19.248 228.192,20.016 228.192,20.808 C228.192,21.936 229.176,22.488 230.064,22.488 Z"/>
</svg>
